<svg width="293" height="72" viewBox="0 0 293 72" fill="none" xmlns="http://www.w3.org/2000/svg">
<path d="M9.52 21.16C8.32 22.12 7.72 23.6133 7.72 25.64C7.72 27.6667 8.30667 29.1467 9.48 30.08C10.68 31.0133 12.3333 31.48 14.44 31.48C15.4267 31.48 16.4133 31.3733 17.4 31.16V20.04C17 19.9333 16.52 19.8533 15.96 19.8C15.4267 19.72 14.92 19.68 14.44 19.68C12.36 19.68 10.72 20.1733 9.52 21.16ZM17.4 4.04H24.04V36.72C20.9467 37.5733 17.76 38 14.48 38C12.3467 38 10.4267 37.68 8.72 37.04C7.04 36.4267 5.6 35.5733 4.4 34.48C3.22667 33.36 2.33333 32.0533 1.72 30.56C1.10667 29.04 0.8 27.4 0.8 25.64C0.8 23.88 1.10667 22.2533 1.72 20.76C2.36 19.24 3.26667 17.92 4.44 16.8C5.61333 15.6533 7.01333 14.76 8.64 14.12C10.2667 13.48 12.0667 13.16 14.04 13.16C14.5733 13.16 15.16 13.1867 15.8 13.24C16.4667 13.2933 17 13.3467 17.4 13.4V4.04ZM41.1978 31.48C41.7578 31.48 42.3445 31.4267 42.9578 31.32C43.5978 31.2133 44.1978 31.08 44.7578 30.92C45.3445 30.76 45.8645 30.5733 46.3178 30.36C46.7978 30.12 47.3445 29.7067 47.9578 29.12L50.9578 35.2C49.4378 36.0533 47.8645 36.7333 46.2378 37.24C44.6378 37.7467 42.7045 38 40.4378 38C38.5978 38 36.8911 37.68 35.3178 37.04C33.7445 36.4267 32.3711 35.5733 31.1978 34.48C30.0511 33.36 29.1578 32.04 28.5178 30.52C27.8778 29 27.5578 27.36 27.5578 25.6C27.5578 23.7867 27.8778 22.12 28.5178 20.6C29.1845 19.08 30.0778 17.7733 31.1978 16.68C32.3445 15.56 33.6645 14.6933 35.1578 14.08C36.6778 13.4667 38.3045 13.16 40.0378 13.16C41.8511 13.16 43.5178 13.48 45.0378 14.12C46.5578 14.76 47.8645 15.7067 48.9578 16.96C50.0511 18.1867 50.8778 19.6933 51.4378 21.48C52.0245 23.24 52.2778 25.4 52.1978 27.96H34.5178C34.7311 28.9467 35.3845 29.7867 36.4778 30.48C37.5711 31.1467 38.9445 31.48 40.5978 31.48H41.1978ZM43.4778 20.12C42.5445 19.48 41.3711 19.16 39.9578 19.16C38.5445 19.16 37.3578 19.52 36.3978 20.24C35.4645 20.96 34.9045 21.64 34.7178 22.28H45.1578C44.9711 21.4533 44.4111 20.7333 43.4778 20.12ZM60.6125 37.52L52.4925 13.96H59.4525L64.8125 30.04L70.1725 13.96H77.1325L69.0125 37.52H60.6125ZM78.1263 30.56C77.5129 29.04 77.2063 27.3867 77.2063 25.6C77.2063 23.8133 77.5129 22.1733 78.1263 20.68C78.7663 19.16 79.6463 17.84 80.7663 16.72C81.9129 15.6 83.2463 14.7333 84.7663 14.12C86.3129 13.48 87.9929 13.16 89.8063 13.16C91.4063 13.16 92.8463 13.3333 94.1263 13.68C95.4329 14 96.8196 14.5333 98.2863 15.28L95.6063 21.28C94.5663 20.6933 93.6196 20.28 92.7663 20.04C91.9396 19.8 91.0329 19.68 90.0463 19.68C89.1396 19.68 88.3129 19.8267 87.5663 20.12C86.8463 20.3867 86.2329 20.7867 85.7263 21.32C85.2196 21.8267 84.8196 22.44 84.5263 23.16C84.2596 23.88 84.1263 24.6933 84.1263 25.6C84.1263 26.5067 84.2596 27.32 84.5263 28.04C84.8196 28.76 85.2196 29.3733 85.7263 29.88C86.2329 30.3867 86.8463 30.7867 87.5663 31.08C88.3129 31.3467 89.1396 31.48 90.0463 31.48C91.0329 31.48 91.9396 31.3733 92.7663 31.16C93.6196 30.92 94.5663 30.48 95.6063 29.84L98.2863 35.92C96.8196 36.6667 95.4329 37.2 94.1263 37.52C92.8463 37.84 91.4063 38 89.8063 38C87.9929 38 86.3129 37.68 84.7663 37.04C83.2463 36.4267 81.9129 35.5733 80.7663 34.48C79.6463 33.36 78.7663 32.0533 78.1263 30.56ZM115.031 13.96H121.671V36.2C120.631 36.5467 119.724 36.8267 118.951 37.04C118.204 37.2533 117.444 37.4267 116.671 37.56C115.898 37.72 115.084 37.8267 114.231 37.88C113.404 37.96 112.498 38 111.511 38C110.018 38 108.618 37.84 107.311 37.52C106.031 37.2 104.898 36.6533 103.911 35.88C102.924 35.1067 102.151 34.1067 101.591 32.88C101.058 31.6267 100.791 30.08 100.791 28.24V13.96H107.431V26.64C107.431 28.56 107.724 29.8533 108.311 30.52C108.924 31.16 109.938 31.48 111.351 31.48C111.938 31.48 112.564 31.44 113.231 31.36C113.898 31.28 114.498 31.1733 115.031 31.04V13.96ZM127.095 14.4C128.268 14.1867 129.322 14.0133 130.255 13.88C131.188 13.72 132.108 13.6 133.015 13.52C133.922 13.4133 134.775 13.3333 135.575 13.28C136.375 13.2 137.095 13.16 137.735 13.16C139.202 13.16 140.588 13.3067 141.895 13.6C143.228 13.8667 144.388 14.3733 145.375 15.12C146.388 15.8667 147.188 16.88 147.775 18.16C148.362 19.4133 148.655 21 148.655 22.92V37.52H142.015V24.52C142.015 22.6267 141.642 21.3467 140.895 20.68C140.148 20.0133 139.015 19.68 137.495 19.68C136.908 19.68 136.255 19.72 135.535 19.8C134.842 19.88 134.242 19.96 133.735 20.04V37.52H127.095V14.4ZM160.298 13.56C160.751 13.48 161.364 13.4 162.138 13.32C162.938 13.2133 163.658 13.16 164.298 13.16C165.764 13.16 167.151 13.3067 168.458 13.6C169.791 13.8667 170.951 14.3733 171.938 15.12C172.951 15.8667 173.751 16.88 174.338 18.16C174.924 19.4133 175.218 21 175.218 22.92V37.52H168.578V24.52C168.578 22.6267 168.204 21.3467 167.458 20.68C166.711 20.0133 165.578 19.68 164.058 19.68C163.471 19.68 162.818 19.72 162.098 19.8C161.404 19.88 160.804 19.96 160.298 20.04V37.52H153.658V4.04H160.298V13.56ZM193.86 27.64C193.62 27.5867 193.153 27.52 192.46 27.44C191.793 27.3333 191.167 27.28 190.58 27.28C189.887 27.28 189.247 27.3333 188.66 27.44C188.073 27.52 187.567 27.6533 187.14 27.84C186.713 28.0267 186.393 28.2667 186.18 28.56C185.967 28.8533 185.86 29.2133 185.86 29.64C185.86 30.44 186.26 31.0267 187.06 31.4C187.887 31.7467 188.953 31.92 190.26 31.92C190.927 31.92 191.607 31.8667 192.3 31.76C192.993 31.6533 193.513 31.5467 193.86 31.44V27.64ZM190.18 38C188.74 38 187.34 37.8533 185.98 37.56C184.647 37.2933 183.46 36.8533 182.42 36.24C181.407 35.6267 180.58 34.8133 179.94 33.8C179.3 32.76 178.98 31.4933 178.98 30C178.98 28.6667 179.26 27.48 179.82 26.44C180.38 25.4 181.153 24.5467 182.14 23.88C183.127 23.1867 184.287 22.68 185.62 22.36C186.953 22.0133 188.407 21.84 189.98 21.84C190.593 21.84 191.273 21.8667 192.02 21.92C192.767 21.9467 193.46 22.0133 194.1 22.12C193.94 21.2133 193.447 20.5733 192.62 20.2C191.793 19.8 190.647 19.6 189.18 19.6C188.62 19.6 188.007 19.6533 187.34 19.76C186.673 19.8667 185.993 20.0133 185.3 20.2C184.607 20.36 183.927 20.56 183.26 20.8C182.62 21.04 181.74 21.4267 180.62 21.96L181.5 15C182.62 14.4667 183.9 14.0267 185.34 13.68C186.78 13.3333 188.313 13.16 189.94 13.16C191.433 13.16 192.82 13.3333 194.1 13.68C195.38 14 196.5 14.5333 197.46 15.28C198.42 16.0267 199.167 17.0133 199.7 18.24C200.233 19.44 200.5 20.8933 200.5 22.6V36.08C198.82 36.7467 197.1 37.2267 195.34 37.52C193.607 37.84 191.887 38 190.18 38Z" fill="white"/>
<path d="M1.74 67.26V50.52H12.6V53.72H5.14V57.06H11.88V60.3H5.14V67.26H1.74ZM20.7638 58.5H18.9038C18.7971 58.5 18.6438 58.5067 18.4438 58.52C18.2438 58.52 18.0304 58.5333 17.8038 58.56C17.5904 58.5733 17.2838 58.6067 16.8838 58.66C16.4971 58.7133 16.5438 58.66 17.0238 58.5V67.26H13.7038V55.82C14.1971 55.7267 14.6438 55.6533 15.0438 55.6C15.4438 55.5333 15.8371 55.48 16.2238 55.44C16.6238 55.4 17.0104 55.3667 17.3838 55.34C17.7571 55.3133 18.0904 55.3 18.3838 55.3H20.7638V58.5ZM30.3733 67.02C29.6133 67.34 28.7799 67.5 27.8733 67.5C26.9666 67.5 26.1266 67.34 25.3533 67.02C24.5933 66.7 23.9266 66.2667 23.3533 65.72C22.7799 65.1733 22.3266 64.52 21.9933 63.76C21.6733 63 21.5133 62.18 21.5133 61.3C21.5133 60.42 21.6733 59.6067 21.9933 58.86C22.3266 58.1133 22.7799 57.46 23.3533 56.9C23.9266 56.3267 24.5933 55.88 25.3533 55.56C26.1266 55.24 26.9666 55.08 27.8733 55.08C28.7799 55.08 29.6133 55.24 30.3733 55.56C31.1466 55.88 31.8199 56.3267 32.3933 56.9C32.9666 57.46 33.4133 58.1133 33.7333 58.86C34.0666 59.6067 34.2333 60.42 34.2333 61.3C34.2333 62.18 34.0666 63 33.7333 63.76C33.4133 64.52 32.9666 65.1733 32.3933 65.72C31.8199 66.2667 31.1466 66.7 30.3733 67.02ZM26.6533 64.02C27.0133 64.1667 27.4199 64.24 27.8733 64.24C28.3266 64.24 28.7266 64.1667 29.0733 64.02C29.4333 63.86 29.7399 63.6533 29.9933 63.4C30.2466 63.1333 30.4399 62.82 30.5733 62.46C30.7066 62.1 30.7733 61.7133 30.7733 61.3C30.7733 60.8867 30.7066 60.5 30.5733 60.14C30.4399 59.78 30.2466 59.4733 29.9933 59.22C29.7399 58.9533 29.4333 58.74 29.0733 58.58C28.7266 58.42 28.3266 58.34 27.8733 58.34C27.4199 58.34 27.0133 58.42 26.6533 58.58C26.3066 58.74 26.0066 58.9533 25.7533 59.22C25.4999 59.4733 25.3066 59.78 25.1733 60.14C25.0399 60.5 24.9733 60.8867 24.9733 61.3C24.9733 61.7133 25.0399 62.1 25.1733 62.46C25.3066 62.82 25.4999 63.1333 25.7533 63.4C26.0066 63.6533 26.3066 63.86 26.6533 64.02ZM35.9889 55.7C36.5756 55.5933 37.1022 55.5067 37.5689 55.44C38.0356 55.36 38.4956 55.3 38.9489 55.26C39.4022 55.2067 39.8289 55.1667 40.2289 55.14C40.6289 55.1 40.9889 55.08 41.3089 55.08C42.0422 55.08 42.7356 55.1533 43.3889 55.3C44.0556 55.4333 44.6356 55.6867 45.1289 56.06C45.6356 56.4333 46.0356 56.94 46.3289 57.58C46.6222 58.2067 46.7689 59 46.7689 59.96V67.26H43.4489V60.76C43.4489 59.8133 43.2622 59.1733 42.8889 58.84C42.5156 58.5067 41.9489 58.34 41.1889 58.34C40.8956 58.34 40.5689 58.36 40.2089 58.4C39.8622 58.44 39.5622 58.48 39.3089 58.52V67.26H35.9889V55.7ZM48.0502 55.48H50.1702V51.36H53.4902V55.48H57.7702V58.6H53.4902V62.42C53.4902 62.78 53.5168 63.0733 53.5702 63.3C53.6368 63.5133 53.7302 63.68 53.8502 63.8C53.9702 63.9067 54.1435 63.9933 54.3702 64.06C54.5968 64.1133 54.8835 64.14 55.2302 64.14H57.8502V67.26H54.9302C54.1302 67.26 53.4302 67.1933 52.8302 67.06C52.2435 66.94 51.7435 66.7267 51.3302 66.42C50.9302 66.1133 50.6368 65.7133 50.4502 65.22C50.2635 64.7267 50.1702 64.1267 50.1702 63.42V58.6H48.0502V55.48ZM71.7122 64.24C71.9922 64.24 72.2855 64.2133 72.5922 64.16C72.9122 64.1067 73.2122 64.04 73.4922 63.96C73.7855 63.88 74.0455 63.7867 74.2722 63.68C74.5122 63.56 74.7855 63.3533 75.0922 63.06L76.5922 66.1C75.8322 66.5267 75.0455 66.8667 74.2322 67.12C73.4322 67.3733 72.4655 67.5 71.3322 67.5C70.4122 67.5 69.5589 67.34 68.7722 67.02C67.9855 66.7133 67.2989 66.2867 66.7122 65.74C66.1389 65.18 65.6922 64.52 65.3722 63.76C65.0522 63 64.8922 62.18 64.8922 61.3C64.8922 60.3933 65.0522 59.56 65.3722 58.8C65.7055 58.04 66.1522 57.3867 66.7122 56.84C67.2855 56.28 67.9455 55.8467 68.6922 55.54C69.4522 55.2333 70.2655 55.08 71.1322 55.08C72.0389 55.08 72.8722 55.24 73.6322 55.56C74.3922 55.88 75.0455 56.3533 75.5922 56.98C76.1389 57.5933 76.5522 58.3467 76.8322 59.24C77.1255 60.12 77.2522 61.2 77.2122 62.48H68.3722C68.4789 62.9733 68.8055 63.3933 69.3522 63.74C69.8989 64.0733 70.5855 64.24 71.4122 64.24H71.7122ZM72.8522 58.56C72.3855 58.24 71.7989 58.08 71.0922 58.08C70.3855 58.08 69.7922 58.26 69.3122 58.62C68.8455 58.98 68.5655 59.32 68.4722 59.64H73.6922C73.5989 59.2267 73.3189 58.8667 72.8522 58.56ZM78.8795 55.7C79.4662 55.5933 79.9929 55.5067 80.4595 55.44C80.9262 55.36 81.3862 55.3 81.8395 55.26C82.2929 55.2067 82.7195 55.1667 83.1195 55.14C83.5195 55.1 83.8795 55.08 84.1995 55.08C84.9329 55.08 85.6262 55.1533 86.2795 55.3C86.9462 55.4333 87.5262 55.6867 88.0195 56.06C88.5262 56.4333 88.9262 56.94 89.2195 57.58C89.5129 58.2067 89.6595 59 89.6595 59.96V67.26H86.3395V60.76C86.3395 59.8133 86.1529 59.1733 85.7795 58.84C85.4062 58.5067 84.8395 58.34 84.0795 58.34C83.7862 58.34 83.4595 58.36 83.0995 58.4C82.7529 58.44 82.4529 58.48 82.1995 58.52V67.26H78.8795V55.7ZM95.5608 59.08C94.9608 59.56 94.6608 60.3067 94.6608 61.32C94.6608 62.3333 94.9541 63.0733 95.5408 63.54C96.1408 64.0067 96.9674 64.24 98.0208 64.24C98.5141 64.24 99.0074 64.1867 99.5008 64.08V58.52C99.3008 58.4667 99.0608 58.4267 98.7808 58.4C98.5141 58.36 98.2608 58.34 98.0208 58.34C96.9808 58.34 96.1608 58.5867 95.5608 59.08ZM99.5008 50.52H102.821V66.86C101.274 67.2867 99.6808 67.5 98.0408 67.5C96.9741 67.5 96.0141 67.34 95.1608 67.02C94.3208 66.7133 93.6008 66.2867 93.0008 65.74C92.4141 65.18 91.9674 64.5267 91.6608 63.78C91.3541 63.02 91.2008 62.2 91.2008 61.32C91.2008 60.44 91.3541 59.6267 91.6608 58.88C91.9808 58.12 92.4341 57.46 93.0208 56.9C93.6074 56.3267 94.3074 55.88 95.1208 55.56C95.9341 55.24 96.8341 55.08 97.8208 55.08C98.0874 55.08 98.3808 55.0933 98.7008 55.12C99.0341 55.1467 99.3008 55.1733 99.5008 55.2V50.52Z" fill="#0066FF"/>
<path d="M239.76 13.2V19.64L223.32 25.8L239.76 31.84V38.32L215.32 28.8V22.72L239.76 13.2ZM261.31 4.04H267.83L245.63 43.52H238.99L261.31 4.04ZM291.518 22.72V28.8L267.078 38.32V31.52L283.438 25.8L267.078 19.92V13.2L291.518 22.72Z" fill="#0066FF"/>
</svg>
